<svg width="20" height="21" viewBox="0 0 20 21" fill="none" xmlns="http://www.w3.org/2000/svg">
<path d="M8.57514 3.94767L1.51681 15.731C1.37128 15.983 1.29428 16.2688 1.29346 16.5598C1.29265 16.8508 1.36805 17.1369 1.51216 17.3898C1.65627 17.6426 1.86408 17.8533 2.1149 18.0009C2.36571 18.1485 2.65081 18.2278 2.94181 18.231H17.0585C17.3495 18.2278 17.6346 18.1485 17.8854 18.0009C18.1362 17.8533 18.344 17.6426 18.4881 17.3898C18.6322 17.1369 18.7076 16.8508 18.7068 16.5598C18.706 16.2688 18.629 15.983 18.4835 15.731L11.4251 3.94767C11.2766 3.70276 11.0674 3.50027 10.8178 3.35974C10.5682 3.21921 10.2866 3.14539 10.0001 3.14539C9.71369 3.14539 9.43208 3.21921 9.18248 3.35974C8.93287 3.50027 8.7237 3.70276 8.57514 3.94767V3.94767Z" stroke="#40B2F3" stroke-width="2" stroke-linecap="round" stroke-linejoin="round"/>
<path d="M10 8.23096V11.5643" stroke="white" stroke-width="2" stroke-linecap="round" stroke-linejoin="round"/>
<path d="M10 14.8976H10.0088" stroke="white" stroke-width="2" stroke-linecap="round" stroke-linejoin="round"/>
</svg>
