<svg width="17" height="17" viewBox="0 0 17 17" fill="none" xmlns="http://www.w3.org/2000/svg">
<g clip-path="url(#clip0_27:352)" filter="url(#filter0_i_27:352)">
<path fill-rule="evenodd" clip-rule="evenodd" d="M5.72992 0.916314C6.51192 0.880314 6.76125 0.872314 8.75325 0.872314C10.7453 0.872314 10.9946 0.880981 11.7759 0.916314C12.5573 0.951648 13.0906 1.07631 13.5573 1.25698C14.0459 1.44165 14.4893 1.73031 14.8559 2.10365C15.2293 2.46965 15.5173 2.91231 15.7013 3.40165C15.8826 3.86831 16.0066 4.40165 16.0426 5.18165C16.0786 5.96498 16.0866 6.21431 16.0866 8.20565C16.0866 10.1976 16.0779 10.447 16.0426 11.229C16.0073 12.009 15.8826 12.5423 15.7013 13.009C15.5172 13.4984 15.2288 13.9418 14.8559 14.3083C14.4893 14.6816 14.0459 14.9696 13.5573 15.1536C13.0906 15.335 12.5573 15.459 11.7773 15.495C10.9946 15.531 10.7453 15.539 8.75325 15.539C6.76125 15.539 6.51192 15.5303 5.72992 15.495C4.94992 15.4596 4.41659 15.335 3.94992 15.1536C3.46054 14.9696 3.01714 14.6812 2.65059 14.3083C2.27751 13.9421 1.9888 13.4989 1.80459 13.0096C1.62392 12.543 1.49992 12.0096 1.46392 11.2296C1.42792 10.4463 1.41992 10.197 1.41992 8.20565C1.41992 6.21365 1.42859 5.96431 1.46392 5.18298C1.49926 4.40165 1.62392 3.86831 1.80459 3.40165C1.98907 2.91237 2.278 2.46919 2.65126 2.10298C3.01728 1.72998 3.46024 1.44128 3.94926 1.25698C4.41592 1.07631 4.94926 0.952314 5.72926 0.916314H5.72992ZM11.7166 2.23631C10.9433 2.20098 10.7113 2.19365 8.75325 2.19365C6.79525 2.19365 6.56325 2.20098 5.78992 2.23631C5.07459 2.26898 4.68659 2.38831 4.42792 2.48898C4.08592 2.62231 3.84126 2.78031 3.58459 3.03698C3.34129 3.27368 3.15404 3.56184 3.03659 3.88031C2.93592 4.13898 2.81659 4.52698 2.78392 5.24231C2.74859 6.01565 2.74126 6.24765 2.74126 8.20565C2.74126 10.1636 2.74859 10.3956 2.78392 11.169C2.81659 11.8843 2.93592 12.2723 3.03659 12.531C3.15392 12.849 3.34126 13.1376 3.58459 13.3743C3.82126 13.6176 4.10992 13.805 4.42792 13.9223C4.68659 14.023 5.07459 14.1423 5.78992 14.175C6.56325 14.2103 6.79459 14.2176 8.75325 14.2176C10.7119 14.2176 10.9433 14.2103 11.7166 14.175C12.4319 14.1423 12.8199 14.023 13.0786 13.9223C13.4206 13.789 13.6653 13.631 13.9219 13.3743C14.1653 13.1376 14.3526 12.849 14.4699 12.531C14.5706 12.2723 14.6899 11.8843 14.7226 11.169C14.7579 10.3956 14.7653 10.1636 14.7653 8.20565C14.7653 6.24765 14.7579 6.01565 14.7226 5.24231C14.6899 4.52698 14.5706 4.13898 14.4699 3.88031C14.3366 3.53831 14.1786 3.29365 13.9219 3.03698C13.6852 2.7937 13.3971 2.60645 13.0786 2.48898C12.8199 2.38831 12.4319 2.26898 11.7166 2.23631ZM7.81659 10.4663C8.33969 10.6841 8.92217 10.7135 9.46454 10.5495C10.0069 10.3855 10.4755 10.0383 10.7903 9.56714C11.1051 9.09603 11.2466 8.53023 11.1906 7.96638C11.1346 7.40254 10.8846 6.87563 10.4833 6.47565C10.2274 6.21996 9.91806 6.02419 9.57748 5.90241C9.23689 5.78064 8.87354 5.73589 8.51359 5.77139C8.15363 5.80689 7.80602 5.92177 7.49579 6.10773C7.18556 6.2937 6.92042 6.54614 6.71946 6.84688C6.5185 7.14762 6.38671 7.48917 6.3336 7.84695C6.28048 8.20474 6.30736 8.56984 6.41228 8.91599C6.51721 9.26214 6.69758 9.58072 6.9404 9.84879C7.18323 10.1169 7.48247 10.3278 7.81659 10.4663ZM6.08792 5.54031C6.43794 5.1903 6.85347 4.91265 7.31079 4.72322C7.76811 4.53379 8.25826 4.4363 8.75325 4.4363C9.24825 4.4363 9.7384 4.53379 10.1957 4.72322C10.653 4.91265 11.0686 5.1903 11.4186 5.54031C11.7686 5.89033 12.0463 6.30586 12.2357 6.76318C12.4251 7.2205 12.5226 7.71065 12.5226 8.20565C12.5226 8.70065 12.4251 9.1908 12.2357 9.64812C12.0463 10.1054 11.7686 10.521 11.4186 10.871C10.7117 11.5779 9.75295 11.975 8.75325 11.975C7.75356 11.975 6.79481 11.5779 6.08792 10.871C5.38103 10.1641 4.9839 9.20534 4.9839 8.20565C4.9839 7.20595 5.38103 6.2472 6.08792 5.54031ZM13.3586 4.99765C13.4453 4.91583 13.5148 4.81743 13.5628 4.7083C13.6108 4.59916 13.6365 4.48149 13.6382 4.36227C13.6399 4.24304 13.6177 4.12468 13.5729 4.01419C13.5281 3.9037 13.4615 3.80332 13.3772 3.71901C13.2929 3.63469 13.1925 3.56815 13.082 3.52333C12.9716 3.4785 12.8532 3.4563 12.734 3.45804C12.6147 3.45977 12.4971 3.48542 12.3879 3.53345C12.2788 3.58147 12.1804 3.65091 12.0986 3.73765C11.9395 3.90633 11.8523 4.1304 11.8557 4.36227C11.8591 4.59414 11.9527 4.81557 12.1167 4.97954C12.2807 5.14352 12.5021 5.23713 12.734 5.24051C12.9658 5.24389 13.1899 5.15677 13.3586 4.99765Z" fill="#319FDF"/>
</g>
<defs>
<filter id="filter0_i_27:352" x="0.753418" y="0.205688" width="16" height="20" filterUnits="userSpaceOnUse" color-interpolation-filters="sRGB">
<feFlood flood-opacity="0" result="BackgroundImageFix"/>
<feBlend mode="normal" in="SourceGraphic" in2="BackgroundImageFix" result="shape"/>
<feColorMatrix in="SourceAlpha" type="matrix" values="0 0 0 0 0 0 0 0 0 0 0 0 0 0 0 0 0 0 127 0" result="hardAlpha"/>
<feOffset dy="4"/>
<feGaussianBlur stdDeviation="7.5"/>
<feComposite in2="hardAlpha" operator="arithmetic" k2="-1" k3="1"/>
<feColorMatrix type="matrix" values="0 0 0 0 0 0 0 0 0 0 0 0 0 0 0 0 0 0 0.2 0"/>
<feBlend mode="normal" in2="shape" result="effect1_innerShadow_27:352"/>
</filter>
<clipPath id="clip0_27:352">
<rect width="16" height="16" fill="white" transform="translate(0.753418 0.205688)"/>
</clipPath>
</defs>
</svg>
