<svg width="24" height="24" viewBox="0 0 24 24" fill="none" xmlns="http://www.w3.org/2000/svg">
<path d="M16.8948 15.7167L20.464 19.2851L19.2848 20.4642L15.7165 16.8951C14.3888 17.9594 12.7373 18.5383 11.0356 18.5359C6.89564 18.5359 3.53564 15.1759 3.53564 11.0359C3.53564 6.89589 6.89564 3.53589 11.0356 3.53589C15.1756 3.53589 18.5356 6.89589 18.5356 11.0359C18.5381 12.7376 17.9592 14.389 16.8948 15.7167ZM15.2231 15.0984C16.2807 14.0108 16.8714 12.5529 16.869 11.0359C16.869 7.81256 14.2581 5.20256 11.0356 5.20256C7.81231 5.20256 5.20231 7.81256 5.20231 11.0359C5.20231 14.2584 7.81231 16.8692 11.0356 16.8692C12.5527 16.8716 14.0105 16.281 15.0981 15.2234L15.2231 15.0984Z" fill="white"/>
</svg>
