<svg width="17" height="17" viewBox="0 0 17 17" fill="none" xmlns="http://www.w3.org/2000/svg">
<g clip-path="url(#clip0_27:372)" filter="url(#filter0_i_27:372)">
<path d="M16.5158 3.49703C15.9591 3.7437 15.3611 3.91037 14.7324 3.9857C15.3811 3.59756 15.8664 2.98668 16.0978 2.26703C15.4883 2.62903 14.8213 2.88383 14.1258 3.02037C13.658 2.52094 13.0385 2.18992 12.3633 2.07868C11.6881 1.96745 10.9951 2.08223 10.3919 2.4052C9.78867 2.72818 9.30894 3.24127 9.02719 3.86483C8.74544 4.4884 8.67744 5.18753 8.83375 5.8537C7.59888 5.7917 6.39084 5.47073 5.28803 4.91164C4.18523 4.35254 3.21231 3.56781 2.43242 2.60837C2.16575 3.06837 2.01242 3.6017 2.01242 4.1697C2.01212 4.68103 2.13804 5.18453 2.379 5.63552C2.61997 6.08651 2.96853 6.47106 3.39375 6.75503C2.9006 6.73934 2.41833 6.60609 1.98708 6.36637V6.40636C1.98703 7.12353 2.23511 7.81862 2.68921 8.3737C3.14331 8.92877 3.77547 9.30965 4.47842 9.4517C4.02094 9.57551 3.54131 9.59375 3.07575 9.50503C3.27408 10.1221 3.66041 10.6617 4.18066 11.0483C4.70091 11.4349 5.32903 11.6492 5.97709 11.661C4.87697 12.5246 3.51834 12.9931 2.11975 12.991C1.87201 12.9911 1.62447 12.9766 1.37842 12.9477C2.79807 13.8605 4.45064 14.3449 6.13842 14.343C11.8518 14.343 14.9751 9.61103 14.9751 5.50703C14.9751 5.3737 14.9718 5.23903 14.9658 5.1057C15.5733 4.66635 16.0977 4.1223 16.5144 3.49903L16.5158 3.49703Z" fill="#319FDF"/>
</g>
<defs>
<filter id="filter0_i_27:372" x="0.753418" y="0.205688" width="16" height="20" filterUnits="userSpaceOnUse" color-interpolation-filters="sRGB">
<feFlood flood-opacity="0" result="BackgroundImageFix"/>
<feBlend mode="normal" in="SourceGraphic" in2="BackgroundImageFix" result="shape"/>
<feColorMatrix in="SourceAlpha" type="matrix" values="0 0 0 0 0 0 0 0 0 0 0 0 0 0 0 0 0 0 127 0" result="hardAlpha"/>
<feOffset dy="4"/>
<feGaussianBlur stdDeviation="7.5"/>
<feComposite in2="hardAlpha" operator="arithmetic" k2="-1" k3="1"/>
<feColorMatrix type="matrix" values="0 0 0 0 0 0 0 0 0 0 0 0 0 0 0 0 0 0 0.2 0"/>
<feBlend mode="normal" in2="shape" result="effect1_innerShadow_27:372"/>
</filter>
<clipPath id="clip0_27:372">
<rect width="16" height="16" fill="white" transform="translate(0.753418 0.205688)"/>
</clipPath>
</defs>
</svg>
