<svg width="17" height="17" viewBox="0 0 17 17" fill="none" xmlns="http://www.w3.org/2000/svg">
<g clip-path="url(#clip0_27:378)">
<path d="M10.1789 10.3021V2.79545C10.1789 2.35342 10.0033 1.9295 9.69072 1.61694C9.37816 1.30438 8.95423 1.12878 8.51221 1.12878C8.07018 1.12878 7.64626 1.30438 7.3337 1.61694C7.02114 1.9295 6.84554 2.35342 6.84554 2.79545V10.3021C6.31039 10.6597 5.90442 11.1799 5.68759 11.7858C5.47075 12.3918 5.45455 13.0515 5.64138 13.6674C5.8282 14.2833 6.20815 14.8228 6.7251 15.2062C7.24205 15.5896 7.8686 15.7966 8.51221 15.7966C9.15582 15.7966 9.78237 15.5896 10.2993 15.2062C10.8163 14.8228 11.1962 14.2833 11.383 13.6674C11.5699 13.0515 11.5537 12.3918 11.3368 11.7858C11.12 11.1799 10.714 10.6597 10.1789 10.3021Z" stroke="white" stroke-linecap="round" stroke-linejoin="round"/>
</g>
<defs>
<clipPath id="clip0_27:378">
<rect width="16" height="16" fill="white" transform="translate(0.845703 0.462158)"/>
</clipPath>
</defs>
</svg>
