<svg width="17" height="17" viewBox="0 0 17 17" fill="none" xmlns="http://www.w3.org/2000/svg">
<path d="M12.3695 5.28219C12.5634 5.08878 12.802 4.94613 13.0641 4.86686C13.3262 4.78759 13.6039 4.77415 13.8725 4.82771C14.1411 4.88128 14.3923 5.0002 14.604 5.17397C14.8157 5.34773 14.9813 5.57099 15.0861 5.82398C15.191 6.07698 15.2319 6.35192 15.2052 6.62448C15.1786 6.89705 15.0851 7.15885 14.9332 7.38672C14.7813 7.61459 14.5756 7.80151 14.3342 7.93095C14.0929 8.06039 13.8233 8.12836 13.5495 8.12885H1.88281M6.94281 3.18885C7.09768 3.03306 7.28865 2.91795 7.49873 2.85375C7.70881 2.78955 7.9315 2.77824 8.147 2.82085C8.3625 2.86345 8.56414 2.95864 8.73398 3.09795C8.90383 3.23726 9.03663 3.41638 9.12056 3.61938C9.2045 3.82238 9.23699 4.04298 9.21512 4.26156C9.19326 4.48014 9.11773 4.68994 8.99525 4.87229C8.87277 5.05465 8.70713 5.20392 8.51305 5.30683C8.31898 5.40974 8.10248 5.46311 7.88281 5.46219H1.88281L6.94281 3.18885ZM8.94281 13.0689C9.09768 13.2246 9.28865 13.3398 9.49873 13.404C9.70881 13.4682 9.9315 13.4795 10.147 13.4369C10.3625 13.3943 10.5641 13.2991 10.734 13.1598C10.9038 13.0204 11.0366 12.8413 11.1206 12.6383C11.2045 12.4353 11.237 12.2147 11.2151 11.9961C11.1933 11.7776 11.1177 11.5678 10.9952 11.3854C10.8728 11.2031 10.7071 11.0538 10.5131 10.9509C10.319 10.848 10.1025 10.7946 9.88281 10.7955H1.88281L8.94281 13.0689Z" stroke="white" stroke-linecap="round" stroke-linejoin="round"/>
</svg>
